<mxfile host="app.diagrams.net" modified="2024-06-03T15:18:02.916Z" agent="Mozilla/5.0 (Windows NT 10.0; Win64; x64) AppleWebKit/537.36 (KHTML, like Gecko) Chrome/125.0.0.0 Safari/537.36" version="24.4.13" etag="BJBDcFdDoK9dGUYDU_ui" type="github">
  <diagram name="Page-1" id="WL3nE8pi2QoeSWRDqS5m">
    <mxGraphModel>
      <root>
        <mxCell id="0" />
        <mxCell id="1" parent="0" />
      </root>
    </mxGraphModel>
  </diagram>
</mxfile>
